<?xml version="1.0" encoding="utf-8"?>
<!-- Generator: Adobe Illustrator 26.2.1, SVG Export Plug-In . SVG Version: 6.00 Build 0)  -->
<svg version="1.1" id="Capa_1" xmlns="http://www.w3.org/2000/svg" xmlns:xlink="http://www.w3.org/1999/xlink" x="0px" y="0px"
	 viewBox="0 0 350 49.55" style="enable-background:new 0 0 350 49.55;" xml:space="preserve">
<style type="text/css">
	.st0{fill:#F0F0F0;}
	.st1{fill:none;stroke:#B5C832;stroke-width:3;stroke-miterlimit:10;}
	.st2{fill:#B5C832;}
	.st3{fill:#585857;}
	.st4{fill:#AFCA0A;}
	.st5{fill:#FFFFFF;}
	.st6{fill:#31425F;}
	.st7{fill:#E38432;}
	.st8{fill:none;stroke:#37458D;stroke-width:2;stroke-miterlimit:10;}
</style>
<g>
	<g>
		<path class="st4" d="M24.77,0C11.11,0,0,11.12,0,24.77c0,13.66,11.11,24.78,24.77,24.78c13.66,0,24.77-11.12,24.77-24.78
			C49.55,11.12,38.44,0,24.77,0z M24.77,44.59c-10.93,0-19.82-8.89-19.82-19.82c0-10.93,8.89-19.82,19.82-19.82
			c10.93,0,19.82,8.89,19.82,19.82C44.59,35.71,35.7,44.59,24.77,44.59z"/>
		<path class="st4" d="M39.64,24.78c0,8.21-6.66,14.87-14.87,14.87c-8.2,0-14.86-6.66-14.86-14.87c0-8.21,6.66-14.86,14.86-14.86
			C32.98,9.91,39.64,16.57,39.64,24.78z"/>
	</g>
	<g>
		<path class="st5" d="M135.63,23.93v5.05h14.79c-0.02,3.21-1.3,5.78-3.84,7.74c-2.52,1.96-5.63,2.93-9.31,2.93
			c-4.84,0-8.59-1.29-11.23-3.85c-2.65-2.58-4-6.23-4-10.97c0-4.65,1.33-8.3,3.93-10.95c2.64-2.63,6.29-3.96,10.98-3.96
			c3.86,0,7.07,1.07,8.98,2.47c2.15,1.55,4.38,3.7,4.49,7.86h4.98c-0.37-6.83-3.8-10.23-7.32-12.45c-3-1.93-6.72-2.87-11.18-2.87
			c-6,0-10.79,1.78-14.4,5.39c-0.6,0.6-1.13,1.25-1.63,1.91c-0.63-1.79-1.77-3.28-3.38-4.45c-2.64-1.91-6.39-2.84-11.22-2.84
			c-5.11,0-9.13,1.03-12.09,3c-0.79,0.53-1.46,1.11-2.04,1.73c-0.67-1.22-1.63-2.24-2.9-3.03c-0.92-0.61-2.11-1.02-3.51-1.3
			c-1.4-0.26-3.42-0.39-6.08-0.39H61.94v39.63h17.86c3.18,0,5.59-0.24,7.27-0.75c1.68-0.5,3.11-1.34,4.34-2.55
			c0.26-0.25,0.51-0.52,0.74-0.8c0.34,0.32,0.7,0.64,1.09,0.93c2.84,2.1,6.83,3.16,11.98,3.16c5.61,0,9.97-1.06,13.07-3.16
			c1.34-0.91,2.38-1.99,3.14-3.21c0.41,0.48,0.85,0.93,1.32,1.36c3.61,3.37,8.44,5.04,14.51,5.04c4.97,0,9.15-1.33,12.51-4.01
			c3.79-3.02,5.67-7.18,5.67-12.5c0-0.77-0.11-2.16-0.3-4.19H135.63z M98.04,10.95c1.84-1.19,4.51-1.78,8.02-1.78
			c3.01,0,5.4,0.58,7.17,1.74c1.78,1.18,2.78,2.83,2.99,4.97l2.58-0.02c-1.04,2.44-1.6,5.21-1.68,8.32
			c-1.75-0.69-3.97-1.26-6.69-1.69c-0.98-0.18-2.33-0.4-4.03-0.66c-4.9-0.76-7.76-1.37-8.55-1.78c-0.93-0.44-1.59-0.98-1.96-1.59
			c-0.41-0.6-0.62-1.37-0.62-2.33C95.26,13.88,96.18,12.16,98.04,10.95z M66.89,9.31h11.48c3.63,0,6.09,0.45,7.4,1.34
			c1.27,0.87,1.91,2.4,1.91,4.59c0,2.22-0.72,3.8-2.17,4.71c-1.46,0.96-3.92,1.43-7.42,1.43h-11.2V9.31z M86.88,38.38
			c-1.4,1.08-3.74,1.6-7.03,1.6H66.89V25.91h11.92c3.79,0,6.44,0.54,7.93,1.63C88.23,28.64,89,30.49,89,33.1
			C89,35.56,88.29,37.32,86.88,38.38z M114.43,38.41c-2.06,1.34-4.85,2.01-8.37,2.01c-3.57,0-6.35-0.71-8.36-2.11
			c-1.95-1.38-3.03-3.32-3.23-5.84c-0.15-2.36-0.89-4.28-2.21-5.8c-1.5-1.7-3.64-2.77-6.43-3.21c2.14-0.48,3.8-1.37,5.04-2.61
			c0.04,0.07,0.06,0.14,0.1,0.2c0.86,1.38,2.18,2.54,4.02,3.49c1.66,0.82,4.84,1.58,9.5,2.31l0.49,0.07c0.66,0.1,1.6,0.24,2.82,0.42
			c3.57,0.58,5.72,0.99,6.45,1.29c1.11,0.49,1.92,1.1,2.46,1.8c0.53,0.72,0.79,1.58,0.79,2.56
			C117.49,35.27,116.47,37.08,114.43,38.41z"/>
		<rect x="167.83" y="4.94" class="st5" width="5.07" height="39.69"/>
		<path class="st5" d="M202.13,18.46c-0.7-1.02-1.77-1.83-3.16-2.46c-1.41-0.64-2.95-0.95-4.62-0.95c-3.85,0-6.79,1.59-8.85,4.78
			v-4.12h-4.24v28.92v0h4.72V28.84c0-3.71,0.73-6.21,2.17-7.56c1.46-1.33,3.2-1.99,5.21-1.99c1.25,0,2.35,0.29,3.29,0.88
			c0.93,0.6,1.58,1.39,1.94,2.38c0.38,0.99,0.55,2.48,0.55,4.46v17.61h4.72V26.84c0-2.25-0.09-3.85-0.26-4.74
			C203.31,20.68,202.83,19.47,202.13,18.46z"/>
		<path class="st5" d="M228.05,28.79c-1.31-0.58-3.65-1.32-6.97-2.24c-2.31-0.68-3.7-1.08-4.17-1.25c-0.82-0.35-1.43-0.78-1.8-1.33
			c-0.39-0.48-0.58-1.06-0.58-1.71c0-0.98,0.46-1.83,1.38-2.58c0.92-0.73,2.47-1.11,4.64-1.11c1.83,0,3.25,0.42,4.24,1.25
			c1,0.83,1.61,1.97,1.82,3.46l4.62-0.65c-0.3-1.86-0.84-3.35-1.63-4.46c-0.78-1.11-2.01-1.97-3.66-2.64
			c-1.63-0.64-3.55-0.98-5.74-0.98c-1.45,0-2.81,0.21-4.07,0.58c-1.27,0.4-2.27,0.86-2.99,1.43c-0.99,0.73-1.75,1.61-2.31,2.72
			c-0.57,1.1-0.87,2.29-0.87,3.57c0,1.41,0.35,2.7,1.04,3.86c0.69,1.16,1.7,2.08,3.02,2.74c1.34,0.66,3.74,1.45,7.21,2.35
			c2.57,0.67,4.15,1.22,4.81,1.64c0.93,0.65,1.38,1.52,1.38,2.61c0,1.22-0.53,2.28-1.57,3.2c-1.04,0.92-2.64,1.37-4.82,1.37
			c-2.14,0-3.81-0.51-5.01-1.53c-1.2-1.04-1.92-2.51-2.19-4.45l-4.66,0.77c0.54,3.04,1.73,5.36,3.64,6.89
			c1.88,1.55,4.64,2.33,8.26,2.33c2.17,0,4.13-0.38,5.86-1.18c1.73-0.79,3.05-1.9,3.98-3.32c0.9-1.46,1.35-2.96,1.35-4.6
			c0-1.66-0.36-3.04-1.12-4.17C230.4,30.23,229.39,29.38,228.05,28.79z"/>
		<path class="st5" d="M297.22,30.02c0,3.72-0.23,5.19-0.42,5.77c-0.4,1.23-1.11,2.2-2.14,2.95c-1.07,0.77-2.37,1.14-3.91,1.14
			c-1.54,0-2.88-0.4-3.96-1.17c-1.09-0.78-1.81-1.79-2.2-3.11c-0.28-0.98-0.41-2.87-0.41-5.59V15.06h-4.67v15.32
			c0,3.66,0.4,6.36,1.2,8.21c0.83,1.89,2.13,3.42,3.83,4.46c1.66,1.06,3.76,1.58,6.22,1.58c2.46,0,4.54-0.53,6.21-1.58
			c1.69-1.05,2.94-2.55,3.77-4.4c0.83-1.86,1.24-4.47,1.24-8.05V15.06h-4.76V30.02z"/>
		<polygon class="st5" points="243.43,5.83 238.74,5.83 238.74,15.87 235.28,15.87 235.28,19.65 238.74,19.65 238.74,44.63 
			243.43,44.63 243.43,19.65 248.17,19.65 248.17,15.87 243.43,15.87 		"/>
		<polygon class="st5" points="270.24,5.83 265.55,5.83 265.55,15.87 262.1,15.87 262.1,19.65 265.55,19.65 265.55,44.63 
			270.24,44.63 270.24,19.65 274.98,19.65 274.98,15.87 270.24,15.87 		"/>
		<polygon class="st5" points="314.93,5.83 310.25,5.83 310.25,15.87 306.79,15.87 306.79,19.65 310.25,19.65 310.25,44.63 
			314.93,44.63 314.93,19.65 319.68,19.65 319.68,15.87 314.93,15.87 		"/>
		<rect x="252.8" y="15.87" class="st5" width="4.71" height="28.76"/>
		<path class="st5" d="M255.15,5.83c-1.95,0-3.53,1.58-3.53,3.53c0,1.95,1.58,3.53,3.53,3.53c1.95,0,3.55-1.59,3.55-3.53
			C258.7,7.41,257.1,5.83,255.15,5.83z"/>
		<path class="st5" d="M349.94,31.13c0.03-0.42,0.06-0.85,0.06-1.27c0-1-0.1-1.94-0.28-2.89c-1.29-6.78-7.07-11.91-14-11.91
			c-7.87,0-14.3,6.64-14.3,14.79c0,8.15,6.43,14.78,14.3,14.78c5.89,0,10.94-3.71,13.13-9l-4.15-0.68
			c-1.74,3.28-5.11,5.52-8.98,5.52c-5.24,0-9.57-4.08-10.18-9.35h20.36H349.94z M325.85,26.97c1.23-4.46,5.17-7.73,9.87-7.73
			c4.69,0,8.66,3.28,9.87,7.73H325.85z"/>
	</g>
</g>
</svg>
